<?xml version="1.0" ?><svg viewBox="0 0 32 32" xmlns="http://www.w3.org/2000/svg"><defs><style>.cls-1{fill:#EB3377;}.cls-2{fill:#F26085;}</style></defs><title/><g data-name="Winter Sale" id="Winter_Sale"><path class="cls-1" d="M29,2H19a1,1,0,0,0-.71.29l-16,16a1,1,0,0,0,0,1.42l10,10a1,1,0,0,0,1.42,0l16-16A1,1,0,0,0,30,13V3A1,1,0,0,0,29,2Z"/><circle class="cls-2" cx="23" cy="9" r="3"/><path class="cls-2" d="M17,18H15.41l1.13-1.12a1,1,0,0,0-1.42-1.42L14,16.59V15a1,1,0,0,0-2,0v1.59l-.41-.42-.71-.71a1,1,0,0,0-1.42,1.42l.71.71.42.41H9a1,1,0,0,0,0,2h1.59l-.42.41-.71.71a1,1,0,0,0,0,1.42,1,1,0,0,0,.71.29,1,1,0,0,0,.71-.29l.71-.71.41-.42V23a1,1,0,0,0,2,0V21.41l1.12,1.13a1,1,0,0,0,.71.29,1,1,0,0,0,.71-.29,1,1,0,0,0,0-1.42L15.41,20H17a1,1,0,0,0,0-2Z"/></g></svg>