<?xml version="1.0" ?><svg id="Icons" viewBox="0 0 24 24" xmlns="http://www.w3.org/2000/svg" xmlns:xlink="http://www.w3.org/1999/xlink"><defs><style>.cls-1{fill:url(#linear-gradient);}</style><linearGradient gradientUnits="userSpaceOnUse" id="linear-gradient" x1="12" x2="12" y1="1.468" y2="20.779"><stop offset="0" stop-color="#EB3377"/><stop offset="1" stop-color="#EB3377"/></linearGradient></defs><circle class="cls-1" cx="12" cy="20" r="2"/><path class="cls-1" d="M17.1,15.59a1.984,1.984,0,0,1-1.133-.354,7.088,7.088,0,0,0-7.93,0,2,2,0,1,1-2.27-3.293,10.975,10.975,0,0,1,12.47,0A2,2,0,0,1,17.1,15.59Z"/><path class="cls-1" d="M21,8.581a1.992,1.992,0,0,1-1.058-.3,14.988,14.988,0,0,0-15.88,0A2,2,0,0,1,1.94,4.884a18.988,18.988,0,0,1,20.12,0A2,2,0,0,1,21,8.581Z"/></svg>